<svg width="140" height="44" viewBox="0 0 140 44" fill="none" xmlns="http://www.w3.org/2000/svg">
<path d="M60.5614 9.87549H63.4462L72.9732 22.5782C73.4904 23.3217 73.854 23.9762 74.0641 24.5418H74.1126C74.0965 24.1055 74.0884 23.3782 74.0884 22.3601V9.87549H76.2217V27.0872H73.4823L63.8098 14.2148C63.2603 13.4229 62.8967 12.7926 62.7189 12.3239H62.6704C62.7028 13.132 62.7189 13.835 62.7189 14.433V27.0872H60.5614V9.87549Z" fill="white"/>
<path d="M89.0541 11.9603H89.1026L82.5331 27.0872H80.0362L87.8905 9.87549H90.2905L98.1449 27.0872H95.6479L89.0541 11.9603ZM89.0541 11.9603L90.3147 14.6269C89.7652 13.5764 89.3612 12.6875 89.1026 11.9603H89.0541C88.9087 12.3966 88.7471 12.8088 88.5693 13.1966C88.4077 13.5683 88.1734 14.0451 87.8663 14.6269L89.1026 11.9603H89.0541Z" fill="white"/>
<path d="M112.607 11.8633H106.038V27.0872H103.662V11.8633H97.0926V9.87549H112.607V11.8633Z" fill="white"/>
<path d="M116.175 27.0872V9.87549H118.55V27.0872H116.175Z" fill="white"/>
<path d="M129.448 18.0692L122.709 9.87549H125.666L130.296 15.6693C130.603 16.0895 130.821 16.4127 130.951 16.639H130.999C131.064 16.4935 131.145 16.3481 131.242 16.2026C131.355 16.0572 131.492 15.8875 131.654 15.6935L136.235 9.87549H139.096L132.43 18.1662L139.726 27.0872H136.72L131.678 20.7116C131.484 20.453 131.331 20.2429 131.217 20.0813C131.104 19.9197 131.007 19.75 130.927 19.5722H130.878C130.733 19.8631 130.474 20.2429 130.102 20.7116L125.011 27.0872H122.175L129.448 18.0692Z" fill="white"/>
<path d="M60.5695 32.6131H61.8243L65.9686 38.1387C66.1935 38.4621 66.3517 38.7468 66.4431 38.9929H66.4642C66.4572 38.8031 66.4536 38.4867 66.4536 38.0438V32.6131H67.3816V40.1001H66.19L61.9825 34.5007C61.7435 34.1562 61.5853 33.882 61.508 33.6781H61.4869C61.501 34.0296 61.508 34.3355 61.508 34.5956V40.1001H60.5695V32.6131ZM74.7774 37.738H69.9056C69.9196 38.2653 70.1095 38.6835 70.475 38.9929C70.8476 39.3022 71.3503 39.4568 71.983 39.4568C72.454 39.4568 72.8512 39.369 73.1746 39.1932C73.505 39.0175 73.7581 38.7574 73.9338 38.4129L74.7141 38.7714C74.2009 39.7627 73.2765 40.2583 71.9408 40.2583C71.0128 40.2583 70.2817 40.0193 69.7474 39.5412C69.2202 39.0632 68.9565 38.3918 68.9565 37.5271C68.9565 36.6273 69.2202 35.9278 69.7474 35.4286C70.2817 34.9225 70.9988 34.6694 71.8986 34.6694C72.8055 34.6694 73.512 34.8908 74.0182 35.3337C74.5243 35.7766 74.7774 36.4023 74.7774 37.2107V37.738ZM73.8178 36.9366C73.8178 36.4445 73.6385 36.0613 73.28 35.7872C72.9285 35.513 72.4645 35.3759 71.8881 35.3759C71.2975 35.3759 70.8265 35.5235 70.475 35.8188C70.1235 36.107 69.9337 36.5042 69.9056 37.0104H73.8178V36.9366ZM75.3039 34.8276H76.5693V33.4462L77.5078 33.056V34.8276H79.3849V35.5868H77.5078V38.3074C77.5078 38.666 77.5922 38.9296 77.7609 39.0983C77.9297 39.26 78.1933 39.3409 78.5518 39.3409C78.819 39.3409 79.1002 39.3057 79.3954 39.2354V40.0685C79.1212 40.1599 78.7803 40.2055 78.3725 40.2055C77.6906 40.2055 77.2196 40.0439 76.9595 39.7205C76.6994 39.3901 76.5693 38.9366 76.5693 38.3602V35.5868H75.3039V34.8276ZM80.2791 34.8276H81.2492L82.5568 38.7187C82.606 38.8734 82.6482 39.0526 82.6833 39.2565H82.7044C82.7115 39.1721 82.7325 39.0737 82.7677 38.9612C82.8028 38.8487 82.8275 38.7679 82.8415 38.7187L84.2546 34.8276H85.2669L86.6799 38.7187C86.7643 39.028 86.81 39.2073 86.817 39.2565H86.8381C86.8662 39.0878 86.9049 38.9085 86.9541 38.7187L88.2617 34.8276H89.2424L87.3864 40.1001H86.3108L84.8978 36.209C84.8275 36.0192 84.7853 35.8469 84.7713 35.6923H84.7502C84.7221 35.8539 84.6799 36.0262 84.6236 36.209L83.2 40.1001H82.135L80.2791 34.8276ZM92.8257 40.2583C92.2282 40.2583 91.7009 40.1458 91.244 39.9208C90.787 39.6888 90.432 39.3619 90.1789 38.9401C89.9329 38.5183 89.8098 38.0262 89.8098 37.4638C89.8098 36.9014 89.9329 36.4093 90.1789 35.9875C90.432 35.5657 90.787 35.2423 91.244 35.0174C91.7009 34.7854 92.2282 34.6694 92.8257 34.6694C93.4233 34.6694 93.947 34.7854 94.3969 35.0174C94.8539 35.2423 95.2054 35.5657 95.4515 35.9875C95.7045 36.4093 95.8311 36.9014 95.8311 37.4638C95.8311 38.0262 95.7045 38.5183 95.4515 38.9401C95.2054 39.3619 94.8539 39.6888 94.3969 39.9208C93.947 40.1458 93.4233 40.2583 92.8257 40.2583ZM92.8257 39.4568C93.4514 39.4568 93.9435 39.2846 94.302 38.9401C94.6676 38.5886 94.8504 38.0965 94.8504 37.4638C94.8504 36.8311 94.6676 36.3425 94.302 35.9981C93.9435 35.6466 93.4514 35.4708 92.8257 35.4708C92.193 35.4708 91.6974 35.6466 91.3389 35.9981C90.9803 36.3425 90.8011 36.8311 90.8011 37.4638C90.8011 38.0965 90.9803 38.5886 91.3389 38.9401C91.6974 39.2846 92.193 39.4568 92.8257 39.4568ZM98.1747 36.1668C98.3153 35.7239 98.5543 35.3654 98.8918 35.0912C99.2292 34.817 99.6264 34.6799 100.083 34.6799C100.224 34.6799 100.358 34.6905 100.484 34.7116V35.6184C100.343 35.6044 100.235 35.5973 100.157 35.5973C99.8408 35.5973 99.5702 35.6395 99.3452 35.7239C99.1273 35.8083 98.9375 35.9348 98.7758 36.1035C98.5649 36.3214 98.4208 36.5851 98.3434 36.8944C98.2731 37.1967 98.238 37.5517 98.238 37.9594V40.1001H97.31V34.8276H98.1747V36.1668ZM104.132 37.3689L102.698 38.4972V40.1001H101.77V32.4549H102.698V37.4744L105.777 34.8276H107.064L104.839 36.7889L107.212 40.1001H106.052L104.132 37.3689Z" fill="white"/>
<path d="M8.56216 34.2147C7.20309 33.3313 6.25174 31.9722 5.84401 30.4772L2.85405 18.0417L0 16.139L3.53359 31.0208C4.07722 33.1274 5.36834 34.9622 7.20309 36.1853L18.8232 43.932V41.078L8.56216 34.2147ZM42.6749 17.9058L39.6849 30.4772C39.2772 32.0401 38.3259 33.3992 36.9668 34.2826L26.6378 41.1459V44L38.2579 36.2533C40.0927 35.0301 41.3838 33.1954 41.9274 31.0888L45.5289 16.0031L42.6749 17.9058ZM26.2981 0.713513C24.0556 -0.237838 21.4734 -0.237838 19.2309 0.713513L0.74749 8.66409L3.05791 10.227L20.1822 2.88803C21.8131 2.14054 23.7158 2.14054 25.3467 2.88803L42.471 10.295L44.7815 8.73204L26.2981 0.713513Z" fill="url(#paint0_linear_1228_19781)"/>
<path d="M20.5901 21.0996C19.8426 21.0996 19.0272 20.8957 18.3476 20.4201L14.814 18.0417L16.9206 16.6146L19.6387 18.4494C20.1824 18.7892 20.9299 18.7892 21.4735 18.4494L28.6086 13.6926L30.7152 15.1197L22.7646 20.4201C22.153 20.8957 21.3376 21.0996 20.5901 21.0996Z" fill="url(#paint1_linear_1228_19781)"/>
<path d="M24.9392 22.7984C25.6867 22.7984 26.5021 23.0022 27.1817 23.4779L30.7153 25.8563L28.5407 27.2833L25.8226 25.4486C25.279 25.1088 24.5315 25.1088 23.9878 25.4486L16.8527 30.2053L14.7462 28.7783L22.6967 23.4779C23.3763 23.0022 24.1917 22.7984 24.9392 22.7984Z" fill="url(#paint2_linear_1228_19781)"/>
<defs>
<linearGradient id="paint0_linear_1228_19781" x1="45.4685" y1="1.10094e-05" x2="0.217788" y2="44.1733" gradientUnits="userSpaceOnUse">
<stop stop-color="#9A3EFA"/>
<stop offset="0.502368" stop-color="#59C9E5"/>
<stop offset="1" stop-color="#5CE6B8"/>
</linearGradient>
<linearGradient id="paint1_linear_1228_19781" x1="45.4685" y1="1.10094e-05" x2="0.217788" y2="44.1733" gradientUnits="userSpaceOnUse">
<stop stop-color="#9A3EFA"/>
<stop offset="0.502368" stop-color="#59C9E5"/>
<stop offset="1" stop-color="#5CE6B8"/>
</linearGradient>
<linearGradient id="paint2_linear_1228_19781" x1="45.4685" y1="1.10094e-05" x2="0.217788" y2="44.1733" gradientUnits="userSpaceOnUse">
<stop stop-color="#9A3EFA"/>
<stop offset="0.502368" stop-color="#59C9E5"/>
<stop offset="1" stop-color="#5CE6B8"/>
</linearGradient>
</defs>
</svg>
